<?xml version="1.0" encoding="UTF-8" standalone="no"?>
<!-- Created with Inkscape (http://www.inkscape.org/) -->

<svg
   width="210mm"
   height="297mm"
   viewBox="0 0 210 297"
   version="1.1"
   id="svg5"
   xml:space="preserve"
   xmlns="http://www.w3.org/2000/svg"
   xmlns:svg="http://www.w3.org/2000/svg"><defs
     id="defs2" /><g
     id="layer1"><g
       id="g192"
       transform="matrix(1.7262144,0,0,1.7262144,42.890117,73.443433)"><g
         id="_x37_7_Essential_Icons_19_">
	<path
   id="Document"
   d="M 69.2,22.4 47.4,0.6 C 47,0.2 46.5,0 46,0 H 14 c -2.2,0 -4,1.8 -4,4 v 72 c 0,2.2 1.8,4 4,4 h 52 c 2.2,0 4,-1.8 4,-4 V 23.7 C 69.9,23.1 69.6,22.8 69.2,22.4 Z M 48,6.8 63.2,22 H 48 Z M 66,76 H 14 V 4 h 30 v 20 c 0,1.1 0.9,2 2,2 h 20 z" />
</g><g
         id="g140">
</g><g
         id="g142">
</g><g
         id="g144">
</g><g
         id="g146">
</g><g
         id="g148">
</g><g
         id="g150">
</g><g
         id="g152">
</g><g
         id="g154">
</g><g
         id="g156">
</g><g
         id="g158">
</g><g
         id="g160">
</g><g
         id="g162">
</g><g
         id="g164">
</g><g
         id="g166">
</g><g
         id="g168">
</g></g><path
       d="m 122.63944,161.40893 c 0,6.26913 -2.23549,16.87588 -10.61421,16.87588 -8.37873,0 -10.61421,-10.60675 -10.61421,-16.87588 0,-6.26913 2.23548,-16.87588 10.61421,-16.87588 8.37872,0 10.61421,10.60675 10.61421,16.87588 z m 31.84263,-33.75177 v 67.50355 a 7.0853607,6.7591508 0 0 1 -7.07614,6.75034 H 76.644534 a 7.0853607,6.7591508 0 0 1 -7.07614,-6.75034 v -67.50355 a 7.0853607,6.7591508 0 0 1 7.07614,-6.75035 h 70.761396 a 7.0853607,6.7591508 0 0 1 7.07614,6.75035 z m -24.7665,33.75177 c 0,-11.76039 -5.46949,-23.62624 -17.69034,-23.62624 -12.220849,0 -17.690349,11.86585 -17.690349,23.62624 0,11.76038 5.4695,23.62625 17.690349,23.62625 12.22085,0 17.69034,-11.86587 17.69034,-23.62625 z"
       id="path412"
       style="stroke-width:0.431957" /></g></svg>
